PathFileType	4	(X/Y/Z)	/Users/itak/Documents/Research/Walk-IL/dataset/trc/00021_00004.trc
DataRate	CameraRate	NumFrames	NumMarkers	Units	OrigDataRate	OrigDataStartFrame	OrigNumFrames
100.000000	100.000000	4	53	mm	100.000000	294	785
Frame#	Time	RPSI			LPSI			L3			STRN			T10			C7			CLAV			RBAK			LBAK			LSHO			LUPA			LAEL			LAOL			LWTS			LWPS			LFRA			LIFD			LHPS			LHTS			RSHO			RUPA			RAEL			RAOL			RWTS			RWPS			RFRA			RIFD			RHTS			RHPS			RBHD			LFHD			RFHD			LBHD			LHIP			RHIP			RASI			LASI			LKNE			LTHI			LANK			LTIP			LTOE			LMT1			LMT5			LHEE			RKNE			RTHI			RANK			RTIP			RTOE			RMT1			RMT5			RHEE			
		X1	Y1	Z1	X2	Y2	Z2	X3	Y3	Z3	X4	Y4	Z4	X5	Y5	Z5	X6	Y6	Z6	X7	Y7	Z7	X8	Y8	Z8	X9	Y9	Z9	X10	Y10	Z10	X11	Y11	Z11	X12	Y12	Z12	X13	Y13	Z13	X14	Y14	Z14	X15	Y15	Z15	X16	Y16	Z16	X17	Y17	Z17	X18	Y18	Z18	X19	Y19	Z19	X20	Y20	Z20	X21	Y21	Z21	X22	Y22	Z22	X23	Y23	Z23	X24	Y24	Z24	X25	Y25	Z25	X26	Y26	Z26	X27	Y27	Z27	X28	Y28	Z28	X29	Y29	Z29	X30	Y30	Z30	X31	Y31	Z31	X32	Y32	Z32	X33	Y33	Z33	X34	Y34	Z34	X35	Y35	Z35	X36	Y36	Z36	X37	Y37	Z37	X38	Y38	Z38	X39	Y39	Z39	X40	Y40	Z40	X41	Y41	Z41	X42	Y42	Z42	X43	Y43	Z43	X44	Y44	Z44	X45	Y45	Z45	X46	Y46	Z46	X47	Y47	Z47	X48	Y48	Z48	X49	Y49	Z49	X50	Y50	Z50	X51	Y51	Z51	X52	Y52	Z52	X53	Y53	Z53	

295	2.94	1042.2919921875	1061.39404296875	-275.3204956054688	915.6901245117188	1042.698120117188	-173.7386474609375	971.7310791015625	1115.467529296875	-210.3154144287109	835.4180908203125	1302.6611328125	-389.2092590332031	973.7975463867188	1256.285278320312	-177.3376617431641	921.4138793945312	1522.858764648438	-207.7284698486328	849.1786499023438	1427.287231445312	-345.9464416503906	1027.022216796875	1392.68408203125	-206.4629821777344	853.9570922851562	1475.427368164062	-141.4823760986328	738.216796875	1476.001220703125	-186.6759948730469	698.4340209960938	1350.514892578125	-115.7392730712891	693.9649047851562	1133.832885742188	-97.25296783447266	799.7107543945312	1128.739624023438	-100.6714706420898	696.4375610351562	891.7962036132812	-223.3465881347656	711.1528930664062	867.72119140625	-139.5009918212891	686.4188842773438	1017.059265136719	-111.9931106567383	705.1710815429688	709.5828857421875	-277.46484375	696.4362182617188	780.181640625	-176.7151031494141	677.3946533203125	796.615966796875	-243.4974670410156	1028.807739257812	1515.871826171875	-361.4707946777344	1104.968994140625	1457.51123046875	-385.9606018066406	1185.819458007812	1202.77880859375	-359.2728881835938	1107.856323242188	1164.722412109375	-310.1856079101562	1155.187866210938	922.2427978515625	-440.178955078125	1242.309936523438	927.6275024414062	-411.1226806640625	1207.662231445312	1129.616821289062	-373.7138366699219	1174.070434570312	732.39013671875	-446.1815185546875	1173.600952148438	812.5635986328125	-467.5572204589844	1242.954467773438	823.438232421875	-440.7214050292969	909.9924926757812	1703.555786132812	-364.0027160644531	703.6162719726562	1678.210693359375	-330.6075439453125	744.5611572265625	1684.635131835938	-419.8016662597656	854.8648071289062	1698.8115234375	-230.1419219970703	774.9656372070312	927.303955078125	-189.6872711181641	1053.33447265625	955.9841918945312	-435.5125427246094	931.493896484375	989.1434326171875	-465.9565734863281	748.37939453125	982.5579223632812	-316.2401123046875	838.0386962890625	494.4183654785156	-310.4068908691406	804.5870971679688	623.34033203125	-253.7639465332031	968.93408203125	26.65232849121094	-251.7701873779297	906.0195922851562	260.3470153808594	-249.2117309570312	924.8905029296875	27.99716758728027	-474.9000854492188	963.7792358398438	35.70385360717773	-429.8024597167969	892.5875244140625	30.13797378540039	-351.6142272949219	1047.26513671875	36.26933670043945	-215.4995422363281	960.3525390625	535.1779174804688	-541.7307739257812	1022.627014160156	801.7822265625	-493.6357116699219	1154.446166992188	91.95284271240234	-404.3446044921875	1003.969421386719	417.1708679199219	-522.8572998046875	1007.230834960938	41.41255950927734	-577.5722045898438	1011.918884277344	50.40421295166016	-508.1124572753906	1102.761840820312	61.34909820556641	-540.9966430664062	1143.7314453125	93.88200378417969	-334.1895141601562	
296	2.95	1039.028442382812	1061.083251953125	-284.4541320800781	914.7138671875	1042.539306640625	-179.8021392822266	969.90380859375	1115.412719726562	-217.5523529052734	829.8377685546875	1302.33984375	-393.7066345214844	972.48291015625	1256.168334960938	-184.7210388183594	919.5879516601562	1522.591918945312	-214.3392944335938	844.5125122070312	1426.991088867188	-350.9032287597656	1025.258911132812	1392.495239257812	-215.0252075195312	853.4312133789062	1475.36962890625	-146.6719818115234	736.8727416992188	1475.942749023438	-189.4289245605469	698.4384155273438	1350.641357421875	-117.4354934692383	694.2990112304688	1133.973999023438	-98.17863464355469	799.954345703125	1128.806030273438	-103.6438903808594	693.8681030273438	892.3328247070312	-224.9195556640625	710.0910034179688	867.9883422851562	-141.3452758789062	686.3296508789062	1017.2998046875	-112.9540100097656	701.50146484375	710.2220458984375	-279.6319274902344	694.5693359375	780.6064453125	-178.5854797363281	674.4962158203125	797.2366943359375	-245.0311126708984	1023.859741210938	1515.444458007812	-370.0724792480469	1099.521606445312	1457.035888671875	-396.1527404785156	1180.6416015625	1202.205688476562	-371.3688049316406	1103.623046875	1164.111328125	-320.7001037597656	1147.883422851562	921.726318359375	-452.0127258300781	1235.633178710938	927.030029296875	-424.7012329101562	1202.052612304688	1128.990600585938	-386.2688293457031	1166.672973632812	732.3417358398438	-459.0328369140625	1165.534423828125	811.8892822265625	-479.8775939941406	1235.547607421875	822.8877563476562	-454.4901123046875	906.2274169921875	1703.179931640625	-369.8612365722656	700.2637329101562	1679.042724609375	-332.8883972167969	739.6910400390625	1685.408447265625	-422.7801208496094	853.4971313476562	1698.47216796875	-235.0358734130859	774.0985717773438	927.0009155273438	-192.4809875488281	1046.638549804688	956.0841674804688	-444.7362365722656	924.1100463867188	989.0423583984375	-472.257080078125	745.141357421875	981.9725952148438	-318.4811096191406	837.1068115234375	493.6308288574219	-310.7127990722656	803.763916015625	623.0712890625	-254.7008209228516	969.0154418945312	26.69775581359863	-251.7591705322266	906.0087890625	260.3477172851562	-249.4033508300781	924.98486328125	27.93139266967773	-474.9078063964844	963.8612670898438	35.63971328735352	-429.8062744140625	892.5249633789062	30.10769081115723	-351.6057739257812	1047.373413085938	36.37129592895508	-215.5362243652344	949.0133056640625	536.2750854492188	-550.0157470703125	1013.92822265625	802.0968017578125	-502.5895080566406	1138.697387695312	86.28730010986328	-431.0252685546875	990.8150024414062	417.284423828125	-535.1824340820312	981.8483276367188	41.86125946044922	-597.5569458007812	990.2220458984375	49.66633605957031	-528.2327270507812	1079.616333007812	58.86962890625	-565.47021484375	1131.379028320312	87.3326416015625	-360.3160400390625	
297	2.96	1035.537231445312	1060.569458007812	-293.8225402832031	913.5994262695312	1042.334106445312	-185.8980407714844	967.9512329101562	1115.269287109375	-224.7677459716797	824.2294921875	1301.952880859375	-398.1469116210938	971.0184936523438	1256.065551757812	-192.1876983642578	917.664794921875	1522.307861328125	-220.9922790527344	839.7906494140625	1426.636108398438	-355.832275390625	1023.338745117188	1392.254638671875	-223.6118011474609	852.86474609375	1475.26953125	-151.9154052734375	735.54345703125	1475.859130859375	-192.2240142822266	698.468994140625	1350.733642578125	-119.1964569091797	694.6602783203125	1134.07275390625	-99.18222045898438	800.2178955078125	1128.828125	-106.7148971557617	691.4375	892.7715454101562	-226.3364715576172	709.0899658203125	868.1994018554688	-143.1031951904297	686.25390625	1017.504455566406	-113.9356842041016	697.7717895507812	710.7307739257812	-281.5705261230469	692.7625122070312	780.96484375	-180.2896118164062	671.5921630859375	797.7485961914062	-246.3735504150391	1018.778991699219	1514.99267578125	-378.6719970703125	1093.903686523438	1456.526000976562	-406.3037719726562	1175.296997070312	1201.623168945312	-383.4341125488281	1099.288208007812	1163.4443359375	-331.2007751464844	1140.366333007812	921.218017578125	-463.8153076171875	1228.737548828125	926.4407348632812	-438.2751159667969	1196.27197265625	1128.350952148438	-398.7954406738281	1159.02392578125	732.3397827148438	-471.9650268554688	1157.230224609375	811.267578125	-492.2324829101562	1227.892578125	822.3644409179688	-468.2862243652344	902.3666381835938	1702.755981445312	-375.7521667480469	696.9327392578125	1679.817749023438	-335.1414794921875	734.7678833007812	1686.131103515625	-425.7200317382812	852.0567626953125	1698.066772460938	-240.0205230712891	773.2289428710938	926.6657104492188	-195.3367309570312	1039.917602539062	956.1890258789062	-453.7987670898438	916.7611083984375	988.9111938476562	-478.432373046875	742.0902099609375	981.3335571289062	-320.7183837890625	835.9609375	492.8465270996094	-311.1833801269531	802.8980712890625	622.759765625	-255.6994781494141	969.113037109375	26.75827980041504	-251.7480163574219	905.96484375	260.3442687988281	-249.7095489501953	925.1094970703125	27.84426879882812	-474.9313049316406	963.9273681640625	35.5872917175293	-429.8079223632812	892.4215087890625	30.1045093536377	-351.59033203125	1047.499145507812	36.50156021118164	-215.5919494628906	937.836181640625	537.3599243164062	-558.0091552734375	1005.278198242188	802.3794555664062	-511.3303527832031	1121.763549804688	81.14980316162109	-456.7499694824219	977.5463256835938	417.4957275390625	-547.04443359375	956.0269165039062	42.59620666503906	-616.2639770507812	967.927734375	49.24524688720703	-547.2567138671875	1055.673950195312	56.80233001708984	-588.6704711914062	1117.738037109375	81.31873321533203	-385.7031555175781	
298	2.97	1031.759643554688	1059.804321289062	-303.5351257324219	912.3472900390625	1042.076416015625	-192.0368957519531	965.873291015625	1115.0419921875	-231.9792785644531	818.5905151367188	1301.50390625	-402.5372619628906	969.4310302734375	1255.970947265625	-199.7104187011719	915.6475219726562	1522.010620117188	-227.6850891113281	835.0140991210938	1426.228149414062	-360.7384643554688	1021.246765136719	1391.963134765625	-232.2334289550781	852.2389526367188	1475.131713867188	-157.2197723388672	734.2113037109375	1475.758422851562	-195.0725708007812	698.5098876953125	1350.796630859375	-121.0376739501953	695.0284423828125	1134.141479492188	-100.2848510742188	800.4852905273438	1128.810913085938	-109.8945846557617	689.106201171875	893.114013671875	-227.6325073242188	708.1349487304688	868.3607788085938	-144.7995758056641	686.1697998046875	1017.679077148438	-114.9671020507812	693.9970703125	711.113525390625	-283.2848815917969	691.0008544921875	781.2569580078125	-181.8473663330078	668.693603515625	798.14208984375	-247.5391845703125	1013.568481445312	1514.515747070312	-387.2652587890625	1088.111450195312	1455.978881835938	-416.4012145996094	1169.792724609375	1201.039184570312	-395.4511108398438	1094.83447265625	1162.71630859375	-341.7061462402344	1132.656982421875	920.7454223632812	-475.5830383300781	1221.622802734375	925.8551635742188	-451.8101501464844	1190.331420898438	1127.70654296875	-411.2787170410156	1151.0390625	732.2437133789062	-484.8667297363281	1148.700927734375	810.7305908203125	-504.6197814941406	1219.990600585938	821.8656005859375	-482.0840454101562	898.40625	1702.2841796875	-381.6800231933594	693.6103515625	1680.530029296875	-337.3772583007812	729.794189453125	1686.80126953125	-428.6308288574219	850.5374755859375	1697.60107421875	-245.1077117919922	772.3433837890625	926.2932739257812	-198.2615356445312	1033.179565429688	956.2808837890625	-462.7104187011719	909.4470825195312	988.7462158203125	-484.4905700683594	739.0634155273438	980.6664428710938	-322.9712829589844	834.63037109375	492.0636901855469	-311.8598937988281	801.9583129882812	622.4049682617188	-256.8098449707031	969.2286376953125	26.83734321594238	-251.7387542724609	905.86083984375	260.3330993652344	-250.160400390625	925.2470703125	27.74537467956543	-474.9684448242188	963.947509765625	35.56258392333984	-429.8027648925781	892.2922973632812	30.12558746337891	-351.5658569335938	1047.641967773438	36.66799545288086	-215.6683044433594	926.8525390625	538.4187622070312	-565.7389526367188	996.6989135742188	802.6343994140625	-519.8805541992188	1103.702758789062	76.50727844238281	-481.4081115722656	964.2216186523438	417.8000183105469	-558.4419555664062	929.9177856445312	43.64778518676758	-633.7882080078125	945.1359252929688	49.15451431274414	-565.2551879882812	1031.080688476562	55.16517639160156	-610.5903930664062	1102.823120117188	75.80412292480469	-410.2392578125	
